<?xml version="1.0" standalone="no"?>
<!DOCTYPE svg PUBLIC "-//W3C//DTD SVG 20010904//EN"
 "http://www.w3.org/TR/2001/REC-SVG-20010904/DTD/svg10.dtd">
<svg version="1.0" xmlns="http://www.w3.org/2000/svg"
 width="462.000000pt" height="462.000000pt" viewBox="0 0 462.000000 462.000000"
 preserveAspectRatio="xMidYMid meet">
<metadata>
Created by potrace 1.14, written by Peter Selinger 2001-2017
</metadata>
<g transform="translate(0.000000,462.000000) scale(0.100000,-0.100000)"
fill="#000000" stroke="none">
<path d="M2197 3203 c-24 -10 -36 -20 -33 -29 3 -8 -6 -26 -20 -41 -46 -49
-114 -145 -114 -159 0 -23 33 -16 93 20 80 48 152 128 161 179 4 23 0 30 -20
37 -14 6 -26 10 -27 9 -1 0 -19 -7 -40 -16z m69 -18 c11 -28 -71 -126 -150
-179 -59 -40 -73 -33 -37 17 109 148 172 202 187 162z"/>
<path d="M2310 3145 c-14 -16 -10 -18 14 -9 9 3 16 10 16 15 0 14 -16 11 -30
-6z"/>
<path d="M2334 3091 c-59 -36 -107 -116 -58 -97 30 12 11 -4 -36 -30 -52 -28
-87 -68 -70 -79 18 -11 49 6 83 46 19 21 53 53 76 70 41 29 42 29 39 8 -5 -39
22 -33 68 15 65 68 57 103 -13 50 -18 -14 -33 -22 -33 -18 0 4 -14 -5 -32 -22
-32 -30 -30 -21 6 29 27 37 11 53 -30 28z m26 -4 c0 -11 -72 -78 -78 -72 -4 4
11 22 32 41 37 32 46 38 46 31z m69 -48 c-19 -24 -35 -37 -37 -30 -4 13 45 71
61 71 5 0 -6 -19 -24 -41z m-202 -116 c-14 -15 -30 -24 -33 -20 -4 4 6 18 21
32 38 32 47 22 12 -12z"/>
<path d="M2238 3063 c-35 -38 -62 -83 -50 -83 5 0 18 12 27 28 10 15 29 39 43
55 14 15 21 27 16 27 -6 0 -22 -12 -36 -27z"/>
<path d="M2489 3047 c-51 -61 -56 -72 -30 -58 11 7 21 15 21 19 0 4 9 13 21
20 21 13 21 13 3 -17 -13 -22 -15 -34 -7 -42 7 -7 12 -2 16 18 3 16 19 42 36
58 36 35 40 51 10 34 -16 -8 -23 -8 -28 0 -4 6 -21 -6 -42 -32z"/>
<path d="M3143 3073 c247 -2 647 -2 890 0 243 1 42 2 -448 2 -490 0 -688 -1
-442 -2z"/>
<path d="M563 3043 c247 -2 647 -2 890 0 243 1 42 2 -448 2 -490 0 -688 -1
-442 -2z"/>
<path d="M1933 2819 c-86 -14 -181 -66 -249 -134 -101 -100 -147 -215 -147
-370 0 -154 45 -268 144 -359 97 -90 207 -127 358 -121 109 4 181 19 274 59
l37 16 0 233 0 232 -37 -2 c-21 -1 -104 -2 -184 -2 -145 -1 -146 -1 -143 -23
1 -13 3 -43 3 -68 l1 -45 100 2 100 3 0 -119 0 -119 -65 -17 c-126 -35 -261
-2 -333 79 -119 135 -116 383 5 517 104 115 300 142 470 64 l53 -24 0 80 c0
73 -2 80 -22 89 -73 33 -258 47 -365 29z"/>
<path d="M2830 2811 c-36 -9 -86 -28 -111 -43 -53 -31 -136 -119 -160 -169 -9
-19 -22 -45 -28 -59 -18 -38 -38 -168 -36 -230 5 -121 29 -203 85 -291 90
-139 263 -209 453 -181 205 30 340 166 382 387 7 36 7 213 1 224 -3 4 -8 23
-11 42 -8 51 -60 150 -104 200 -105 119 -290 166 -471 120z m255 -150 c93 -41
151 -137 164 -268 25 -261 -98 -429 -305 -419 -73 4 -120 23 -172 70 -122 111
-142 366 -41 519 75 114 224 155 354 98z"/>
<path d="M209 2806 c-1 -6 -2 -224 -3 -484 l-1 -472 35 -1 c169 -4 327 2 386
15 264 56 411 255 391 530 -10 130 -45 215 -121 288 -101 99 -212 128 -493
132 -132 2 -193 -1 -194 -8z m451 -155 c75 -28 124 -71 157 -139 25 -52 28
-67 28 -172 0 -103 -3 -121 -26 -171 -60 -127 -151 -177 -341 -185 l-108 -4
-1 27 c-6 175 -2 659 6 665 21 15 229 0 285 -21z"/>
<path d="M1199 2805 c-7 -60 -2 -948 5 -953 11 -6 147 -5 153 2 8 7 5 947 -2
954 -11 11 -155 8 -156 -3z"/>
<path d="M3599 2810 c-1 -3 -2 -220 -3 -483 l-1 -477 60 -1 c33 -1 67 -2 75
-3 13 -1 16 49 20 379 3 244 8 373 14 361 5 -11 53 -86 105 -167 53 -81 158
-243 234 -361 l139 -213 61 2 c34 1 73 2 87 2 l26 1 -2 473 c0 259 -2 477 -2
482 -1 6 -32 10 -74 10 l-73 0 0 -373 c0 -204 -1 -372 -2 -372 -1 0 -221 342
-409 635 -33 52 -63 98 -68 102 -8 8 -185 11 -187 3z"/>
<path d="M4195 1670 c3 -5 8 -10 11 -10 2 0 4 5 4 10 0 6 -5 10 -11 10 -5 0
-7 -4 -4 -10z"/>
<path d="M4240 1670 c0 -5 5 -10 10 -10 6 0 10 5 10 10 0 6 -4 10 -10 10 -5 0
-10 -4 -10 -10z"/>
<path d="M354 1560 l1 -90 43 0 c24 0 41 4 38 9 -4 5 -20 7 -36 5 l-30 -5 0
85 c0 47 -4 86 -8 86 -5 0 -8 -40 -8 -90z"/>
<path d="M691 1564 c-35 -96 -35 -94 -21 -94 6 0 10 8 10 19 0 25 19 38 57 39
23 0 33 -5 38 -21 4 -12 7 -25 6 -29 -1 -5 3 -8 9 -8 13 0 13 11 -3 51 -8 19
-22 55 -31 82 -10 26 -21 47 -26 47 -4 0 -22 -38 -39 -86z m68 -16 c1 -5 -12
-8 -29 -8 -34 0 -37 8 -13 53 l16 32 13 -35 c7 -19 13 -38 13 -42z"/>
<path d="M1034 1560 c0 -49 4 -90 8 -90 5 0 8 20 8 44 l0 43 48 -1 47 -1 0
-43 c0 -23 3 -42 8 -42 4 0 7 42 7 93 0 60 -4 87 -9 77 -6 -8 -7 -27 -4 -42 5
-28 5 -28 -46 -28 l-51 0 0 40 c0 22 -4 40 -8 40 -5 0 -9 -40 -8 -90z"/>
<path d="M1414 1560 l0 -90 44 0 c24 0 41 4 38 9 -3 5 -19 7 -36 5 -29 -3 -30
-2 -30 37 0 36 3 41 19 36 10 -2 25 -1 32 4 10 6 4 9 -18 9 -31 0 -33 2 -33
33 0 31 3 34 31 35 49 1 47 12 -2 12 l-45 0 0 -90z"/>
<path d="M1743 1630 c1 -11 6 -19 12 -16 6 2 32 -30 59 -70 27 -41 52 -74 56
-74 9 0 17 97 12 148 -6 61 -19 32 -17 -38 1 -38 -1 -70 -4 -70 -3 1 -27 32
-54 70 -48 72 -67 86 -64 50z"/>
<path d="M2124 1560 l0 -90 33 0 c71 0 112 46 99 114 -8 42 -42 66 -94 66
l-38 0 0 -90z m103 51 c12 -16 17 -42 13 -71 -3 -23 -32 -47 -67 -55 l-31 -6
-4 53 c-1 29 -2 66 0 81 3 26 5 27 40 21 20 -4 42 -14 49 -23z"/>
<path d="M2502 1575 c4 -83 17 -105 65 -105 41 0 60 33 61 110 0 39 -3 70 -9
70 -5 0 -9 -30 -9 -67 0 -72 -6 -90 -30 -93 -51 -8 -69 20 -64 102 2 26 -1 50
-7 54 -8 5 -10 -17 -7 -71z"/>
<path d="M2888 1639 c-31 -18 -22 -54 22 -83 22 -14 40 -33 40 -41 0 -22 -30
-34 -58 -24 -18 7 -23 6 -20 -3 7 -22 55 -21 77 1 26 26 18 53 -24 75 -19 10
-36 25 -39 32 -9 22 22 45 51 38 18 -5 24 -3 19 5 -9 14 -45 14 -68 0z"/>
<path d="M3205 1563 l1 -88 42 -3 c23 -2 42 1 42 5 0 5 -15 9 -32 9 -31 -1
-33 1 -36 38 -3 29 0 37 10 34 7 -3 22 -2 33 3 16 6 14 8 -12 8 -31 1 -33 3
-33 35 0 32 2 35 30 34 17 -1 33 2 37 5 3 4 -14 7 -38 7 l-45 0 1 -87z"/>
<path d="M3534 1560 l1 -90 32 0 c74 0 114 49 97 118 -10 42 -41 62 -95 62
l-35 0 0 -90z m73 69 c35 -13 43 -25 43 -70 0 -41 -20 -64 -67 -73 l-31 -7 -4
53 c-7 107 1 119 59 97z"/>
<path d="M4008 1643 c-23 -6 -47 -61 -42 -97 4 -34 45 -76 74 -76 38 0 67 22
80 61 26 78 -30 134 -112 112z m85 -31 c22 -20 22 -74 -1 -102 -37 -45 -112
-17 -112 42 0 74 59 106 113 60z"/>
<path d="M4160 1591 c0 -33 4 -71 10 -85 16 -42 89 -47 105 -8 11 26 14 152 4
152 -5 0 -9 -30 -9 -67 0 -72 -6 -90 -30 -93 -52 -8 -67 16 -64 103 1 31 -3
57 -7 57 -5 0 -9 -27 -9 -59z"/>
<path d="M1744 1540 c4 -83 16 -88 16 -7 0 37 -4 67 -9 67 -5 0 -8 -27 -7 -60z"/>
</g>
</svg>
