<?xml version="1.0" encoding="UTF-8"?>
<svg width="67px" height="26px" viewBox="0 0 67 26" version="1.1" xmlns="http://www.w3.org/2000/svg" xmlns:xlink="http://www.w3.org/1999/xlink">
    <!-- Generator: sketchtool 47.1 (45422) - http://www.bohemiancoding.com/sketch -->
    <title>3DE079A4-23A2-4EFE-8A1D-0C7F53CA0CD7</title>
    <desc>Created with sketchtool.</desc>
    <defs></defs>
    <g id="Menyy" stroke="none" stroke-width="1" fill="none" fill-rule="evenodd">
        <g transform="translate(-134.000000, -1636.000000)" id="Fill-4" fill="#FFFFFF">
            <path d="M168.047854,1641.96756 C168.118755,1641.97552 168.188513,1641.97894 168.258271,1641.97894 C169.246321,1641.97894 170.005655,1641.20891 170.025096,1640.18865 C170.04568,1639.06602 169.175419,1638.056 168.083304,1637.93544 C168.013546,1637.92748 167.942645,1637.92406 167.87403,1637.92406 C166.885981,1637.92406 166.126647,1638.69409 166.107206,1639.71435 C166.085478,1640.83698 166.956883,1641.847 168.047854,1641.96756 M193.498011,1655.00833 C192.15431,1658.51383 188.477715,1658.69127 187.753832,1658.69127 C187.665776,1658.69127 187.617746,1658.68899 187.615459,1658.68899 C187.114573,1658.65828 186.734906,1658.48312 186.485607,1658.16692 C186.111657,1657.69148 186.190564,1657.08183 186.193995,1657.05908 C186.277476,1656.39256 186.516483,1655.86025 186.923596,1655.43372 C187.828164,1654.48853 189.552676,1654.07224 192.871332,1653.99717 C192.889629,1653.99717 192.907926,1653.99603 192.92508,1653.99603 C193.221266,1653.99603 193.468278,1654.04153 193.546042,1654.15527 C193.745024,1654.44872 193.516309,1654.95373 193.498011,1655.00833 M158.596088,1648.71617 C158.543483,1648.7719 158.529761,1648.78328 158.49431,1648.78555 C158.49431,1648.78555 158.455428,1648.77531 158.43027,1648.6684 C158.379952,1648.45456 158.271313,1647.9632 158.187832,1647.19317 C158.02087,1645.66904 157.938532,1644.17903 157.94425,1643.19176 C157.946537,1642.88921 158.000285,1641.71767 158.000285,1641.71767 C158.083766,1639.19603 159.169019,1638.86504 159.618444,1638.86504 C159.69392,1638.86504 159.751099,1638.87414 159.776258,1638.87869 C160.006117,1638.9094 160.197094,1639.10731 160.346902,1639.31205 C160.930126,1640.11279 160.656811,1642.05207 160.623647,1642.26818 C160.378922,1644.03572 159.929497,1645.71681 159.290238,1647.26369 C159.114128,1647.70728 158.820229,1648.483 158.596088,1648.71617 M141.894168,1651.52899 C142.478535,1649.99689 143.703305,1648.80489 145.431247,1648.08604 C145.467842,1648.06898 146.358687,1647.67885 147.355885,1647.67885 C147.960836,1647.67885 148.478876,1647.8233 148.899712,1648.11334 C149.200472,1648.33286 149.373152,1648.62404 149.412033,1648.97891 C149.511524,1649.8877 148.652699,1650.88749 148.622966,1650.92275 C147.629199,1652.17276 145.450688,1652.4719 142.487684,1652.53673 L142.45452,1652.53673 C142.164052,1652.53673 141.907891,1652.55038 141.782098,1652.39228 C141.609418,1652.1739 141.874727,1651.58358 141.894168,1651.52899 M200.740275,1651.76898 C200.512703,1651.40501 200.1662,1651.15933 199.763661,1651.0763 C198.880821,1650.89431 198.564051,1650.87156 198.03915,1650.83289 C197.842455,1650.81924 197.619457,1650.78853 197.334707,1650.77716 C196.765206,1650.75441 196.756058,1650.59631 196.639413,1650.22096 C196.478169,1649.69775 196.278043,1649.18023 196.031031,1648.68432 C195.697107,1647.99505 193.538037,1644.54073 183.930859,1644.5339 C183.854239,1644.53163 183.678129,1644.53845 183.408245,1644.53845 C182.62947,1644.53845 181.074207,1644.57826 179.404587,1644.84442 C175.889236,1645.40402 173.63868,1646.67793 172.715814,1648.63086 C172.4425,1649.2098 171.724334,1651.24577 173.985183,1653.1316 C173.985183,1653.1316 174.06409,1653.19871 174.089248,1653.22032 C174.642739,1653.70372 175.857216,1654.43962 176.423286,1654.71601 C178.289601,1655.68395 178.294175,1656.58592 178.269017,1656.78724 C178.257581,1658.1874 177.030525,1659.02339 174.980094,1659.02339 C174.80627,1659.02339 174.689626,1659.01543 174.656462,1659.01316 C171.212013,1659.00633 170.719132,1654.67052 170.715701,1654.63071 C170.466401,1652.57086 170.06615,1647.56624 170.020407,1646.99185 C170.014689,1646.83375 170.00554,1646.67451 169.991818,1646.51414 C169.9861,1646.43338 169.81685,1644.5339 168.199835,1644.5339 C167.724107,1644.5339 167.362738,1644.67722 167.126017,1644.96157 C166.661726,1645.51777 166.786375,1646.44931 166.788663,1646.46978 C166.884723,1647.3945 166.824113,1648.094 166.82297,1648.14064 C166.513061,1652.22395 163.630107,1656.421 163.57979,1656.50744 C163.57979,1656.50744 162.336723,1658.48199 161.642573,1658.45696 C160.821486,1658.42625 160.436101,1657.28543 160.422378,1657.24221 C160.06787,1656.24015 159.760248,1655.10615 159.50523,1654.12797 C159.477785,1654.03698 159.335981,1653.49216 159.743094,1652.9917 C161.88158,1650.04694 163.236717,1646.59717 163.773054,1642.73907 C163.994908,1641.13532 164.052087,1639.06409 162.497967,1637.26471 C161.803817,1636.46169 160.707128,1636.0272 159.486933,1636.00104 C158.758476,1635.98512 158.282748,1636.15687 158.248441,1636.17052 C154.833725,1637.45124 154.786838,1643.06778 154.785694,1643.1292 C154.747957,1644.25183 154.82572,1646.02733 155.103608,1648.2032 C155.133341,1648.44433 155.618217,1651.48349 155.649094,1651.64159 C155.700555,1651.91457 155.705129,1652.15343 155.682258,1652.35816 C155.658243,1652.56403 155.607925,1652.73578 155.547316,1652.87682 C155.426097,1653.15662 155.268283,1653.31017 155.231689,1653.35112 C154.634743,1654.01423 153.327636,1655.29155 152.278977,1656.10934 C150.910117,1657.17624 149.219913,1658.21697 147.251819,1658.57867 C146.827553,1658.65601 146.415866,1658.70264 146.028194,1658.70264 C143.853113,1658.70264 142.790731,1657.42647 142.357316,1656.67464 C142.337875,1656.64279 142.053125,1656.24697 142.183493,1655.99333 C142.272692,1655.8193 142.572308,1655.84433 142.846767,1655.84092 C144.880044,1655.79769 146.342677,1655.61343 147.589174,1655.24605 C151.625995,1654.05518 152.40477,1651.11269 152.552292,1649.90363 C152.682659,1648.83446 152.658644,1646.85536 151.049633,1645.49843 C150.12105,1644.71475 148.605813,1644.51798 147.489683,1644.51798 C146.226032,1644.51798 145.084744,1644.74546 144.383732,1645.00934 C141.481337,1646.10467 139.369154,1648.35788 138.622399,1651.30833 C138.600671,1651.3925 138.583517,1651.4778 138.564076,1651.54719 C138.395971,1652.17162 138.390253,1652.22167 137.87107,1652.19665 C137.845911,1652.19551 137.760143,1652.18527 137.729266,1652.18072 C137.479967,1652.14546 136.741217,1651.99874 136.36155,1651.91116 C136.225465,1651.88045 136.08023,1651.8486 135.918986,1651.81334 C135.810347,1651.78945 135.69942,1651.77808 135.589637,1651.77808 C134.842882,1651.77808 134.188757,1652.32859 134.034374,1653.08838 C133.947462,1653.5206 134.026369,1653.96077 134.259658,1654.33043 C134.490661,1654.70009 134.8486,1654.95032 135.263718,1655.04473 C136.254054,1655.2688 136.88302,1655.36093 137.731553,1655.53154 C138.44057,1655.67372 138.514903,1655.55656 138.771064,1656.3937 C139.191899,1657.77338 139.860891,1659.0359 140.705993,1660.04934 C141.774093,1661.32893 143.4906,1661.99318 145.812058,1661.99318 C146.38842,1661.99318 147.001376,1661.93744 147.631486,1661.85669 C150.127912,1661.53366 152.379612,1660.0209 153.499172,1659.14737 C154.200184,1658.60028 155.005261,1657.87006 155.835497,1657.12392 C156.706901,1656.34251 156.790382,1656.3755 157.168906,1657.52087 C157.260392,1657.79954 157.339299,1658.10778 157.435359,1658.37962 C157.792154,1659.38964 158.237005,1660.64762 159.761391,1661.47338 C160.394932,1661.81688 161.025042,1661.9909 161.634568,1661.9909 C164.002913,1661.9909 165.569611,1659.41125 166.168845,1658.42625 C166.280915,1658.26588 166.598829,1657.70058 166.860708,1657.23083 C166.978496,1657.01017 167.359307,1656.23218 167.592596,1656.25948 C167.736687,1656.27541 167.896787,1656.89871 167.961971,1657.17396 C167.976838,1657.23538 168.08319,1657.56637 168.100344,1657.61755 C168.707582,1659.46926 170.230825,1660.39852 170.246835,1660.4099 C171.237171,1661.13215 172.891925,1661.99318 175.150486,1661.99318 L175.168784,1661.99318 C175.402073,1661.99318 180.904958,1661.93744 181.442439,1657.10572 C181.516771,1656.2356 181.355527,1655.32908 180.97586,1654.48285 C180.28171,1652.93483 178.743601,1652.19324 177.916796,1651.79514 L177.773849,1651.7269 C177.443355,1651.56538 176.915023,1651.27762 176.437009,1650.9182 L176.422142,1650.90569 C176.364964,1650.86019 175.870939,1650.44276 175.920113,1649.91614 C175.948702,1649.60449 176.167125,1649.36449 176.523921,1649.15066 C178.066604,1648.22594 181.005593,1647.83467 183.237852,1647.83467 C183.450557,1647.83467 183.933146,1647.83809 183.952587,1647.83809 C189.198168,1647.83809 191.559651,1648.94592 192.520254,1649.5988 C192.839312,1649.81263 193.335624,1650.21528 193.261291,1650.44617 C193.185815,1650.67934 192.616315,1650.69413 192.463076,1650.69413 L192.463076,1650.69413 C191.22687,1650.72256 189.399437,1650.81583 187.803006,1651.28672 C184.293372,1652.3229 183.274447,1654.76492 183.03887,1656.63028 C183.024004,1656.75312 182.682075,1659.65352 184.341403,1661.05254 C185.269986,1661.83621 186.795516,1662 187.911645,1662 C189.370847,1661.98635 190.430942,1661.77934 191.017596,1661.5621 C193.543754,1660.62601 195.526714,1658.67762 196.458728,1656.21512 C196.648562,1655.71466 196.804088,1655.19373 196.892143,1654.66028 C196.965332,1654.22124 197.01565,1654.10636 197.584007,1654.11091 C197.620601,1654.11091 197.658339,1654.11319 197.698364,1654.11774 C197.797855,1654.12797 197.883623,1654.13593 197.963674,1654.14276 C198.254142,1654.17006 198.485144,1654.19053 199.048927,1654.29404 C199.154136,1654.31223 199.259345,1654.32247 199.364554,1654.32247 C200.142185,1654.32247 200.798597,1653.79812 200.960985,1653.04743 C201.055902,1652.61067 200.975851,1652.14433 200.740275,1651.76898"></path>
        </g>
    </g>
</svg>